<svg width="145" height="45" viewBox="0 0 145 45" fill="none" xmlns="http://www.w3.org/2000/svg">
<path d="M62.388 30.914H65.048L68.324 40H66.112L65.3 37.606H61.982L61.184 40H59.028L62.388 30.914ZM64.824 36.15L63.676 32.734H63.62L62.472 36.15H64.824ZM69.3316 30.914H71.5436L75.9396 37.116V30.914H77.8856V40H75.6736L71.2776 33.7V40H69.3316V30.914ZM81.9452 32.468H79.1452V30.914H86.9152V32.468H84.1292V40H81.9452V32.468ZM88.1714 30.914H90.3554V40H88.1714V30.914ZM92.314 30.914H96.178C97.242 30.914 98.082 30.998 98.698 31.166C99.314 31.3247 99.7667 31.6047 100.056 32.006C100.345 32.4073 100.49 32.9627 100.49 33.672V37.368C100.49 38.0587 100.355 38.5953 100.084 38.978C99.8133 39.3513 99.37 39.6173 98.754 39.776C98.138 39.9253 97.284 40 96.192 40H92.314V30.914ZM96.094 38.446C96.6913 38.446 97.1393 38.4227 97.438 38.376C97.746 38.32 97.9653 38.2173 98.096 38.068C98.236 37.9187 98.306 37.6853 98.306 37.368V33.63C98.306 33.2007 98.1333 32.902 97.788 32.734C97.452 32.5567 96.9107 32.468 96.164 32.468H94.498V38.446H96.094ZM102.253 30.914H109.183V32.468H104.437V34.554H108.721V36.108H104.437V38.446H109.323V40H102.253V30.914ZM112.898 32.468H110.098V30.914H117.868V32.468H115.082V40H112.898V32.468ZM119.125 30.914H126.055V32.468H121.309V34.554H125.593V36.108H121.309V38.446H126.195V40H119.125V30.914ZM131.687 40.14C131.277 40.14 130.908 40.1213 130.581 40.084C130.264 40.0467 129.914 39.9767 129.531 39.874C129.102 39.762 128.747 39.6173 128.467 39.44C128.187 39.2533 127.954 38.9967 127.767 38.67C127.571 38.3433 127.473 37.956 127.473 37.508V33.518C127.473 31.6887 128.878 30.774 131.687 30.774C132.406 30.774 133.367 30.8767 134.571 31.082V32.72C133.489 32.4587 132.537 32.328 131.715 32.328C131.37 32.328 131.099 32.3373 130.903 32.356C130.717 32.3747 130.521 32.4213 130.315 32.496C129.877 32.6453 129.657 32.9767 129.657 33.49V37.354C129.657 38.1753 130.409 38.586 131.911 38.586C132.555 38.586 133.461 38.4507 134.627 38.18V39.832C133.629 40.0373 132.649 40.14 131.687 40.14ZM138.123 32.468H135.323V30.914H143.093V32.468H140.307V40H138.123V32.468Z" fill="white"/>
<path d="M59.1 5.53H65.76L70.56 19.45L75.3 5.53H81.57V25H77.34V10.6H77.25L72.33 25H68.58L63.51 10.6H63.39V25H59.1V5.53ZM90.9202 5.53H96.6202L103.64 25H98.9002L97.1602 19.87H90.0502L88.3402 25H83.7202L90.9202 5.53ZM96.1402 16.75L93.6802 9.43H93.5602L91.1002 16.75H96.1402ZM112.099 25.3C110.239 25.3 107.939 25.12 105.199 24.76V21.19C108.599 21.71 110.919 21.97 112.159 21.97C114.759 21.97 116.059 21.3 116.059 19.96V18.7C116.059 18.06 115.869 17.57 115.489 17.23C115.129 16.89 114.469 16.72 113.509 16.72H111.229C106.949 16.72 104.809 15.02 104.809 11.62V10.18C104.809 8.48 105.519 7.23 106.939 6.43C108.359 5.63 110.609 5.23 113.689 5.23C115.289 5.23 117.319 5.36 119.779 5.62V9.1C116.759 8.74 114.679 8.56 113.539 8.56C111.959 8.56 110.899 8.69 110.359 8.95C109.779 9.23 109.489 9.67 109.489 10.27V11.65C109.489 12.67 110.349 13.18 112.069 13.18H114.409C116.629 13.18 118.239 13.59 119.239 14.41C120.239 15.23 120.739 16.48 120.739 18.16V19.45C120.739 21.77 119.909 23.34 118.249 24.16C117.449 24.58 116.559 24.87 115.579 25.03C114.619 25.21 113.459 25.3 112.099 25.3ZM132.783 25.3C131.703 25.3 130.703 25.23 129.783 25.09C128.883 24.95 127.943 24.71 126.963 24.37C125.903 24.01 125.073 23.43 124.473 22.63C123.873 21.81 123.573 20.82 123.573 19.66V11.14C123.573 10.18 123.783 9.32 124.203 8.56C124.643 7.8 125.203 7.2 125.883 6.76C126.483 6.38 127.223 6.06 128.103 5.8C128.983 5.54 129.803 5.38 130.563 5.32C131.263 5.26 132.003 5.23 132.783 5.23C133.703 5.23 134.503 5.27 135.183 5.35C135.863 5.41 136.623 5.55 137.463 5.77C138.423 6.05 139.213 6.39 139.833 6.79C140.453 7.19 140.973 7.75 141.393 8.47C141.833 9.21 142.053 10.1 142.053 11.14V16.45C142.053 19.41 141.233 21.14 139.593 21.64H143.853V25H137.463C137.243 25 136.563 25.05 135.423 25.15C134.283 25.25 133.403 25.3 132.783 25.3ZM132.843 21.97C133.503 21.97 134.053 21.95 134.493 21.91C134.953 21.85 135.423 21.75 135.903 21.61C136.383 21.47 136.743 21.24 136.983 20.92C137.243 20.58 137.373 20.16 137.373 19.66V11.11C137.373 10.19 137.003 9.54 136.263 9.16C135.523 8.76 134.373 8.56 132.813 8.56C131.253 8.56 130.103 8.75 129.363 9.13C128.623 9.51 128.253 10.17 128.253 11.11V19.66C128.253 20.16 128.383 20.58 128.643 20.92C128.903 21.24 129.283 21.47 129.783 21.61C130.263 21.75 130.723 21.85 131.163 21.91C131.623 21.95 132.183 21.97 132.843 21.97Z" fill="white"/>
<path fill-rule="evenodd" clip-rule="evenodd" d="M45 29.6546V15.3454C45 6.88391 38.1156 0 29.655 0H15.345C6.88312 0 0 6.88391 0 15.3454V29.6558C0 38.1174 6.88312 45.0013 15.345 45H29.655C38.1169 45 45 38.1161 45 29.6546ZM16.2925 17.2174H14.3999L15.6597 10.8564C15.8349 10.0095 16.4808 9.33339 17.3453 9.0939C18.2518 8.84274 19.2017 9.10704 19.823 9.78607L22.6047 12.8205C22.7944 13.0279 23.2158 13.0293 23.407 12.8205L26.1887 9.78607C26.8114 9.10704 27.7599 8.84128 28.6664 9.0939C29.5309 9.33339 30.1768 10.0095 30.352 10.8564L31.6799 17.2174H29.7192L28.4811 11.2493C28.4391 11.0448 28.2407 10.9689 28.1567 10.9455C27.9902 10.8988 27.7541 10.9119 27.5934 11.0872L24.8116 14.1216C23.8993 15.1175 22.1124 15.1175 21.2001 14.1216L18.4183 11.0872C18.2576 10.9134 18.0215 10.9003 17.855 10.9455C17.7725 10.9703 17.5726 11.0463 17.5306 11.2493L16.2925 17.2174ZM34.2293 27.9015C33.6315 26.8808 32.6946 26.1061 31.5839 25.7152C30.4746 25.3243 29.2624 25.3426 28.1642 25.7672C27.0674 26.1918 26.1527 26.9932 25.5856 28.0323C24.65 27.4671 23.5782 27.1676 22.4856 27.169C21.3944 27.169 20.3226 27.4699 19.3871 28.0379V28.0337C18.603 26.5982 17.174 25.6407 15.5601 25.4677C13.9462 25.2962 12.3503 25.9317 11.2883 27.1704C10.2262 28.4091 9.83285 30.0935 10.2346 31.6808C10.6363 33.2668 11.7818 34.5561 13.3012 35.1297C14.8219 35.7034 16.5248 35.4911 17.8593 34.5589C19.1952 33.6281 19.9932 32.097 19.9987 30.459C20.0029 30.2031 19.9792 29.9472 19.932 29.6956C20.6687 29.1374 21.564 28.8351 22.4856 28.8351C23.4073 28.8351 24.3025 29.1374 25.0379 29.697C24.9906 29.9486 24.9683 30.2031 24.9711 30.459C24.9753 31.7891 25.4994 33.0629 26.4321 34.0035C27.3649 34.9441 28.6271 35.4742 29.9449 35.477C30.7137 35.477 31.4588 35.2802 32.1385 34.9427L33.2562 36L34.5114 34.6503L33.6259 33.8123C34.2571 33.1065 34.6908 32.2404 34.8506 31.2942C35.0466 30.1244 34.8256 28.9237 34.2279 27.9029L34.2293 27.9015ZM15.0235 33.8039C13.1927 33.8039 11.7067 32.3051 11.7067 30.4576C11.7067 28.6101 13.1913 27.1113 15.0235 27.1113C16.8557 27.1113 18.3403 28.6087 18.3403 30.4576C18.3403 32.3065 16.8557 33.8039 15.0235 33.8039ZM29.9463 33.8039C28.1142 33.8039 26.6295 32.3051 26.6295 30.4576C26.6295 28.6101 28.1142 27.1113 29.9463 27.1113C31.7785 27.1113 33.2631 28.6087 33.2631 30.4576C33.2631 32.3065 31.7785 33.8039 29.9463 33.8039ZM9.00005 20.7392H36V21.9131H9.00005V20.7392Z" fill="white"/>
</svg>
